<svg xmlns="http://www.w3.org/2000/svg" width="120" height="120" viewBox="0 0 120 120">
  <g id="icon3" transform="translate(-1316 -1072)">
    <circle id="타원_3" data-name="타원 3" cx="60" cy="60" r="60" transform="translate(1316 1072)" fill="#1db954"/>
    <g id="Expanded" transform="translate(1343 1099)">
      <g id="그룹_19" data-name="그룹 19">
        <g id="그룹_10" data-name="그룹 10" transform="translate(12 30)">
          <rect id="사각형_12" data-name="사각형 12" width="4" height="3" fill="#fff"/>
        </g>
        <g id="그룹_11" data-name="그룹 11" transform="translate(0)">
          <path id="패스_9" data-name="패스 9" d="M16.5,27.5H3.913A4.027,4.027,0,0,1,0,23.375V4.125A4.027,4.027,0,0,1,3.913,0H31.838A4.027,4.027,0,0,1,35.75,4.125v16.5H33V4.125A1.284,1.284,0,0,0,31.837,2.75H3.913A1.284,1.284,0,0,0,2.75,4.125v19.25A1.284,1.284,0,0,0,3.913,24.75H16.5Z" fill="#fff"/>
        </g>
        <g id="그룹_12" data-name="그룹 12" transform="translate(5.5 30.25)">
          <path id="패스_10" data-name="패스 10" d="M10.875,24.75h-5.5a1.375,1.375,0,0,1,0-2.75h5.5a1.375,1.375,0,0,1,0,2.75Z" transform="translate(-4 -22)" fill="#fff"/>
        </g>
        <g id="그룹_13" data-name="그룹 13" transform="translate(0 20)">
          <rect id="사각형_13" data-name="사각형 13" width="36" height="2" fill="#fff"/>
        </g>
        <g id="그룹_14" data-name="그룹 14" transform="translate(41.25 57.75)">
          <path id="패스_11" data-name="패스 11" d="M31.375,50.25A1.375,1.375,0,0,1,30,48.875v-5.5a1.375,1.375,0,0,1,2.75,0v5.5A1.375,1.375,0,0,1,31.375,50.25Z" transform="translate(-30 -42)" fill="#fff"/>
        </g>
        <g id="그룹_15" data-name="그룹 15" transform="translate(28.875 63.25)">
          <path id="패스_12" data-name="패스 12" d="M46.638,48.75H22.375a1.375,1.375,0,0,1,0-2.75H46.638a1.375,1.375,0,1,1,0,2.75Z" transform="translate(-21 -46)" fill="#fff"/>
        </g>
        <g id="그룹_16" data-name="그룹 16" transform="translate(19.25 24.75)">
          <path id="패스_13" data-name="패스 13" d="M54.975,53.75h-35.2A6.075,6.075,0,0,1,14,47.425v-23.1A6.076,6.076,0,0,1,19.775,18h35.2a6.075,6.075,0,0,1,5.775,6.325v23.1A6.075,6.075,0,0,1,54.975,53.75Zm-35.2-33a3.338,3.338,0,0,0-3.025,3.575v23.1A3.338,3.338,0,0,0,19.775,51h35.2A3.338,3.338,0,0,0,58,47.425v-23.1a3.338,3.338,0,0,0-3.025-3.575Z" transform="translate(-14 -18)" fill="#fff"/>
        </g>
        <g id="그룹_17" data-name="그룹 17" transform="translate(19.25 49.5)">
          <path id="패스_14" data-name="패스 14" d="M59.375,38.75h-44a1.375,1.375,0,0,1,0-2.75h44a1.375,1.375,0,1,1,0,2.75Z" transform="translate(-14 -36)" fill="#fff"/>
        </g>
        <g id="그룹_18" data-name="그룹 18" transform="translate(41.25 53.625)">
          <path id="패스_15" data-name="패스 15" d="M31.375,39a1.375,1.375,0,1,0,1.375,1.375A1.374,1.374,0,0,0,31.375,39Z" transform="translate(-30 -39)" fill="#fff"/>
        </g>
      </g>
    </g>
  </g>
</svg>
