<svg xmlns="http://www.w3.org/2000/svg" width="120" height="120" viewBox="0 0 120 120">
  <g id="icon1" transform="translate(-480 -1072)">
    <circle id="타원_1" data-name="타원 1" cx="60" cy="60" r="60" transform="translate(480 1072)" fill="#1db954"/>
    <g id="Expanded" transform="translate(508 1097)">
      <g id="그룹_29" data-name="그룹 29" transform="translate(8)">
        <g id="그룹_25" data-name="그룹 25">
          <path id="패스_19" data-name="패스 19" d="M47.741,70.65H15.359A7.368,7.368,0,0,1,8,63.291V7.359A7.368,7.368,0,0,1,15.359,0H47.741A7.368,7.368,0,0,1,55.1,7.359V63.291A7.368,7.368,0,0,1,47.741,70.65ZM15.359,2.944a4.421,4.421,0,0,0-4.416,4.416V63.291a4.421,4.421,0,0,0,4.416,4.416H47.741a4.421,4.421,0,0,0,4.416-4.416V7.359a4.421,4.421,0,0,0-4.416-4.416Z" transform="translate(-8)" fill="#fff"/>
        </g>
        <g id="그룹_26" data-name="그룹 26" transform="translate(5.888 5.888)">
          <path id="패스_20" data-name="패스 20" d="M45.853,30.494H13.472A1.472,1.472,0,0,1,12,29.022V5.472A1.472,1.472,0,0,1,13.472,4H45.853a1.472,1.472,0,0,1,1.472,1.472v23.55A1.472,1.472,0,0,1,45.853,30.494ZM14.944,27.55H44.381V6.944H14.944Z" transform="translate(-12 -4)" fill="#fff"/>
        </g>
        <g id="그룹_27" data-name="그룹 27" transform="translate(8.831 35.325)">
          <path id="패스_21" data-name="패스 21" d="M28.719,53.438A14.719,14.719,0,1,1,43.438,38.719,14.735,14.735,0,0,1,28.719,53.438Zm0-26.494A11.775,11.775,0,1,0,40.494,38.719,11.789,11.789,0,0,0,28.719,26.944Z" transform="translate(-14 -24)" fill="#fff"/>
        </g>
        <g id="그룹_28" data-name="그룹 28" transform="translate(14.719 41.213)">
          <path id="패스_22" data-name="패스 22" d="M26.831,45.663a8.831,8.831,0,1,1,8.831-8.831A8.84,8.84,0,0,1,26.831,45.663Zm0-14.719a5.888,5.888,0,1,0,5.888,5.888A5.893,5.893,0,0,0,26.831,30.944Z" transform="translate(-18 -28)" fill="#fff"/>
        </g>
      </g>
    </g>
  </g>
</svg>
