<svg xmlns="http://www.w3.org/2000/svg" width="120" height="120" viewBox="0 0 120 120">
  <g id="icon2" transform="translate(-757.539 -1077.539)">
    <path id="패스_23" data-name="패스 23" d="M60,0A60,60,0,1,1,0,60,60,60,0,0,1,60,0Z" transform="translate(757.539 1077.539)" fill="#1db954"/>
    <g id="Expanded" transform="translate(782.654 1097.623)">
      <g id="그룹_9" data-name="그룹 9" transform="translate(6.715 5.052)">
        <g id="그룹_1" data-name="그룹 1" transform="translate(0 25.591)">
          <path id="패스_1" data-name="패스 1" d="M32.978,58.06H8.734A6.742,6.742,0,0,1,2,51.325V19H4.694V51.325a4.046,4.046,0,0,0,4.041,4.041H32.978a4.046,4.046,0,0,0,4.041-4.041V19h2.694V51.325A6.742,6.742,0,0,1,32.978,58.06Z" transform="translate(-2 -19)" fill="#fff"/>
        </g>
        <g id="그룹_2" data-name="그룹 2" transform="translate(0 21.55)">
          <path id="패스_2" data-name="패스 2" d="M35.672,24.081H6.041a4.041,4.041,0,0,1,0-8.081H35.672a4.041,4.041,0,1,1,0,8.081ZM6.041,18.694a1.347,1.347,0,1,0,0,2.694H35.672a1.347,1.347,0,1,0,0-2.694Z" transform="translate(-2 -16)" fill="#fff"/>
        </g>
        <g id="그룹_3" data-name="그룹 3" transform="translate(5.388 32.325)">
          <path id="패스_3" data-name="패스 3" d="M19.469,50.938A13.469,13.469,0,1,1,32.938,37.469,13.484,13.484,0,0,1,19.469,50.938Zm0-24.244A10.775,10.775,0,1,0,30.244,37.469,10.788,10.788,0,0,0,19.469,26.694Z" transform="translate(-6 -24)" fill="#fff"/>
        </g>
        <g id="그룹_4" data-name="그룹 4" transform="translate(10.775 37.713)">
          <path id="패스_4" data-name="패스 4" d="M18.081,44.163a8.081,8.081,0,1,1,8.081-8.081A8.089,8.089,0,0,1,18.081,44.163Zm0-13.469a5.388,5.388,0,1,0,5.388,5.388A5.393,5.393,0,0,0,18.081,30.694Z" transform="translate(-10 -28)" fill="#fff"/>
        </g>
        <g id="그룹_5" data-name="그룹 5" transform="translate(17.509 2.694)">
          <path id="패스_5" data-name="패스 5" d="M25.775,10.081H15V2H25.775ZM17.694,7.388h5.388V4.694H17.694Z" transform="translate(-15 -2)" fill="#fff"/>
        </g>
        <g id="그룹_6" data-name="그룹 6" transform="translate(6.734)">
          <path id="패스_6" data-name="패스 6" d="M13.734,13.469a6.734,6.734,0,1,1,6.734-6.734A6.742,6.742,0,0,1,13.734,13.469Zm0-10.775a4.041,4.041,0,1,0,4.041,4.041A4.046,4.046,0,0,0,13.734,2.694Z" transform="translate(-7)" fill="#fff"/>
        </g>
        <g id="그룹_7" data-name="그룹 7" transform="translate(26.938 5.388)">
          <path id="패스_7" data-name="패스 7" d="M46.244,63.263a8.089,8.089,0,0,1-8.081-8.081V33.631a2.7,2.7,0,0,0-2.694-2.694H31.428V28.244h4.041a5.393,5.393,0,0,1,5.388,5.388v21.55a5.388,5.388,0,0,0,10.775,0V13.428A6.742,6.742,0,0,0,44.9,6.694H22V4H44.9a9.439,9.439,0,0,1,9.428,9.428V55.181A8.089,8.089,0,0,1,46.244,63.263Z" transform="translate(-22 -4)" fill="#fff"/>
        </g>
        <g id="그룹_8" data-name="그룹 8" transform="translate(12.122 5.388)">
          <path id="패스_8" data-name="패스 8" d="M12.347,4a1.347,1.347,0,1,0,1.347,1.347A1.346,1.346,0,0,0,12.347,4Z" transform="translate(-11 -4)" fill="#fff"/>
        </g>
      </g>
    </g>
  </g>
</svg>
